<svg fill="none" height="64" viewBox="0 0 64 64" width="64" xmlns="http://www.w3.org/2000/svg" xmlns:xlink="http://www.w3.org/1999/xlink"><clipPath id="a"><path d="m0 0h64v64h-64z"/></clipPath><g clip-path="url(#a)" fill="#f46662"><path d="m32 13.6144c.4711 0 .853-.3746.853-.8366 0-.4621-.3819-.8367-.853-.8367s-.853.3746-.853.8367c0 .462.3819.8366.853.8366z"/><path d="m60.0101 46.8182h-1.0199c.4852-.8036.7649-1.7441.7649-2.7489v-29.4679c0-2.9473-2.4005-5.34501-5.351-5.34501h-44.80808c-2.95051 0-5.35101 2.39771-5.35101 5.34501v29.4681c0 1.0047.27987 1.9452.76487 2.7488h-1.01987c-2.20001 0-3.99001 1.7777-3.99001 3.9627s1.78988 3.9627 3.99001 3.9627h56.02009c2.2 0 3.99-1.7776 3.99-3.9627-.0001-2.1853-1.7898-3.9628-3.99-3.9628zm-53.80596-32.2168c0-1.867 1.5215-3.3859 3.39188-3.3859h44.80818c1.8703 0 3.3919 1.5189 3.3919 3.3859v29.4681c0 1.1311-.559 2.1335-1.415 2.7488h-17.8959-12.7-18.16618c-.85601-.6153-1.41488-1.6177-1.41488-2.7488zm32.88896 34.7864c0 .3368-.2728.6107-.6079.6107h-12.7c-.3351 0-.6079-.2739-.6079-.6107 0-.3366.2728-.6105.6079-.6105h12.7c.3353.0002.6079.2739.6079.6105zm20.917 3.3967h-56.02009c-1.11975 0-2.03076-.8988-2.03076-2.0037 0-1.1048.91101-2.0036 2.03076-2.0036h19.30439c-.0481.196-.0762.3998-.0762.6105 0 1.417 1.1516 2.5698 2.567 2.5698h12.7c1.4155 0 2.567-1.1528 2.567-2.5698 0-.2106-.0282-.4144-.0762-.6105h19.034c1.1197 0 2.0308.8988 2.0308 2.0036-.0002 1.1049-.9109 2.0037-2.0307 2.0037z"/><path d="m53.8243 14.541h-14.4444-29.2039c-1.09458 0-1.98508.8997-1.98508 2.0054v3.9121 22.8827c0 1.0888.8905 1.9746 1.98508 1.9746h29.2039 14.4444c.1368 0 .2705-.0138.3996-.0402.9039-.1844 1.5856-.9816 1.5856-1.9344v-22.8827-3.9121c0-1.1057-.8905-2.0054-1.9852-2.0054zm-14.4444 28.8156h-29.2039c-.0195 0-.0258-.014-.026-.0154v-22.8827h29.2299zm14.4705-.0143c-.0001.0002-.0065.0143-.0261.0143h-12.4853v-22.8981h12.5114zm0-24.8429h-43.7004v-1.9529c0-.0336.0222-.0462.026-.0462h43.6483c.0038 0 .0261.0127.0261.0462z"/><path d="m34.3449 22.2358h-18.6166c-1.2734 0-2.3094 1.036-2.3094 2.3095v5.3189c.0002 1.2734 1.036 2.3095 2.3094 2.3095h18.6166c1.2733 0 2.3093-1.036 2.3093-2.3095v-5.3189c0-1.2734-1.036-2.3095-2.3093-2.3095zm.3502 7.6284c0 .1931-.1571.3502-.3501.3502h-18.6167c-.193 0-.3501-.1571-.3501-.3502v-5.3189h.0001c0-.1931.1572-.3503.3502-.3503h18.6165c.193 0 .3501.1572.3501.3503z"/><path d="m50.4164 24.104h-5.9597c-.541 0-.9796.4387-.9796.9797 0 .5411.4386.9796.9796.9796h5.9597c.541 0 .9797-.4385.9797-.9796-.0002-.541-.4387-.9797-.9797-.9797z"/><path d="m50.4164 28.4143h-5.9597c-.541 0-.9796.4386-.9796.9796 0 .5412.4386.9797.9796.9797h5.9597c.541 0 .9797-.4385.9797-.9797-.0002-.541-.4387-.9796-.9797-.9796z"/><path d="m50.4164 32.7245h-5.9597c-.541 0-.9796.4387-.9796.9797 0 .5411.4386.9796.9796.9796h5.9597c.541 0 .9797-.4385.9797-.9796-.0002-.5412-.4387-.9797-.9797-.9797z"/><path d="m50.4164 37.0347h-5.9597c-.541 0-.9796.4386-.9796.9796s.4386.9797.9796.9797h5.9597c.541 0 .9797-.4387.9797-.9797-.0002-.541-.4387-.9796-.9797-.9796z"/><path d="m35.6746 34.0307h-21.276c-.541 0-.9797.4386-.9797.9796s.4387.9797.9797.9797h21.2761c.541 0 .9797-.4387.9797-.9797-.0002-.5411-.4388-.9796-.9798-.9796z"/><path d="m35.6746 38.3408h-21.276c-.541 0-.9797.4386-.9797.9796s.4387.9797.9797.9797h21.2761c.541 0 .9797-.4387.9797-.9797-.0002-.541-.4388-.9796-.9798-.9796z"/></g></svg>