<svg fill="none" height="45" viewBox="0 0 45 45" width="45" xmlns="http://www.w3.org/2000/svg"><g fill="#f46662"><path d="m9.57422 28.9628c0 .3965.32141.718.71808.718h24.4149c.3967 0 .7181-.3215.7181-.718 0-.3966-.3214-.7181-.7181-.7181h-24.4149c-.39667 0-.71808.3215-.71808.7181z"/><path d="m6.70166 31.8351c0 .3966.32142.7181.71809.7181h30.15955c.3967 0 .7181-.3215.7181-.7181s-.3214-.7181-.7181-.7181h-30.15955c-.39667 0-.71809.3215-.71809.7181z"/><path d="m34.7072 33.9894h-24.4149c-.39667 0-.71808.3215-.71808.718 0 .3966.32141.7181.71808.7181h24.4149c.3967 0 .7181-.3215.7181-.7181 0-.3965-.3214-.718-.7181-.718z"/><path d="m28.9625 36.8617h-12.9256c-.3966 0-.7181.3215-.7181.7181v2.8723c0 .3966.3215.7181.7181.7181h12.9256c.3966 0 .718-.3215.718-.7181v-2.8723c0-.3966-.3214-.7181-.718-.7181zm-.7181 2.8723h-11.4894v-1.4361h11.4894z"/><path d="m41.4093 18.7751h-10.2945c-.3966 0-.718.3216-.718.7181 0 1.7158-1.3959 3.1117-3.1118 3.1117h-9.5706c-1.7158 0-3.1117-1.3959-3.1117-3.1117 0-.3965-.3214-.7181-.7181-.7181h-10.29444c-.39667 0-.71809.3216-.71809.7181v22.1423c0 1.8552 1.50932 3.3645 3.36456 3.3645h32.52627c1.8552 0 3.3645-1.5093 3.3645-3.3645v-22.1423c0-.3965-.3214-.7181-.7181-.7181zm-.7181 22.8604c0 1.0633-.865 1.9283-1.9284 1.9283h-32.52617c-1.06334 0-1.92839-.865-1.92839-1.9283v-21.4242h8.91486c.3452 2.1678 2.2278 3.8298 4.4912 3.8298h9.5707c2.2635 0 4.1461-1.662 4.4912-3.8298h8.915z"/><path d="m8.37726 17.339c.39668 0 .71809-.3215.71809-.7181v-1.1968h26.80855v1.1968c0 .3966.3214.7181.7181.7181.3966 0 .718-.3215.718-.7181v-15.902815c0-.396574-.3214-.718085-.718-.718085h-28.24474c-.39667 0-.71808.321511-.71808.718085v15.902815c0 .3966.32141.7181.71808.7181zm27.52664-15.90283v12.55173h-26.80855v-12.55173z"/><path d="m5.50519 17.339c.39667 0 .71809-.3215.71809-.7181v-3.8298c0-.3966-.32142-.7181-.71809-.7181s-.71808.3215-.71808.7181v3.8298c0 .3966.32141.7181.71808.7181z"/><path d="m39.4945 17.339c.3966 0 .718-.3215.718-.7181v-3.8298c0-.3966-.3214-.7181-.718-.7181-.3967 0-.7181.3215-.7181.7181v3.8298c0 .3966.3214.7181.7181.7181z"/><path d="m19.4373 6.22341c.3967 0 .7181-.32152.7181-.71809v-.23936h1.6264v4.89214h-.2393c-.3967 0-.7181.3215-.7181.7181s.3214.7181.7181.7181h1.9149c.3966 0 .718-.3215.718-.7181s-.3214-.7181-.718-.7181h-.2394v-4.89214h1.6654v.23936c0 .39657.3214.71809.7181.71809.3966 0 .7181-.32152.7181-.71809v-.95745c0-.39657-.3215-.71808-.7181-.71808h-6.1642c-.3966 0-.7181.32151-.7181.71808v.95745c0 .39657.3215.71809.7181.71809z"/></g></svg>