<svg fill="none" height="47" viewBox="0 0 47 47" width="47" xmlns="http://www.w3.org/2000/svg"><g fill="#f46662"><path d="m22.0364 13.9349-4.553 4.553c-1.6774 1.6774-3.3644 3.3548-5.0323 5.0514-.393.4026-.6901.9394-.8051 1.4666-.6039 2.7701-1.1886 5.5402-1.77328 8.3104l-.3259 1.5336c-.15337.7477.04792 1.4953.55598 2.0033.393.393.9393.6135 1.5144.6135.163 0 .3259-.0192.4889-.0479l1.687-.3547c2.6838-.5655 5.3773-1.1406 8.0612-1.6966.623-.1342 1.1502-.4121 1.6007-.8626 7.534-7.5436 15.068-15.0776 22.602-22.6021.5559-.5559.8627-1.2173.9394-2.03203.0095-.13419 0-.26839-.0288-.39299-.0479-.19171-.0863-.393-.1342-.5847-.1054-.48885-.2205-1.0448-.4505-1.58157-1.409-3.22064-3.7478-5.5211-6.9493-6.815109-.6422-.258802-1.3228-.345069-1.917-.421751l-.163-.0191705c-.8627-.1054377-1.6487.1821195-2.3292.8722575-4.3134 4.332533-8.6555 8.674653-12.988 13.007163zm15.0009-11.56938h.0479l.163.01917c.4984.05752.9585.11503 1.3227.26839 2.6072 1.05438 4.5243 2.93309 5.6841 5.57861.1342.30673.2204.69973.3067 1.11189.0288.15337.0671.30673.0959.46009-.0384.17254-.1055.28753-.2397.41213-7.5436 7.5245-15.0776 15.068-22.6116 22.6021-.1246.1246-.2396.1821-.4121.2204-2.6935.5655-5.3773 1.1311-8.0708 1.6966l-1.4186.2971.2684-1.2556c.5847-2.7606 1.1694-5.5307 1.7637-8.2913.0191-.0862.0958-.2204.1821-.3163 1.6678-1.687 3.3356-3.3644 5.0131-5.0322l4.553-4.553c4.3421-4.3421 8.6842-8.68425 13.0167-13.03596.1821-.15336.2684-.18212.3355-.18212z"/><path d="m3.72866 10.4842h16.73584c.6518 0 1.179-.52715 1.179-1.17895 0-.65179-.5272-1.17898-1.179-1.17898h-16.73584c-2.06083 0-3.72866 1.67741-3.72866 3.72863v31.3821c0 2.0608 1.67742 3.7287 3.72866 3.7287h31.37254c2.0608 0 3.7286-1.6774 3.7286-3.7287v-16.0553c0-.6518-.5272-1.179-1.179-1.179s-1.1789.5272-1.1789 1.179v16.0553c0 .7572-.6231 1.3803-1.3803 1.3803h-31.36294c-.75723 0-1.38028-.6231-1.38028-1.3803v-31.3725c0-.7572.62305-1.3803 1.38028-1.3803z"/></g></svg>