<svg fill="none" height="55" viewBox="0 0 55 55" width="55" xmlns="http://www.w3.org/2000/svg" xmlns:xlink="http://www.w3.org/1999/xlink"><clipPath id="a"><path d="m0 0h55v55h-55z"/></clipPath><g clip-path="url(#a)" fill="#fff"><path d="m30.1407 42.1903h-5.266c-.4847 0-.8776.393-.8776.8777s.3929.8776.8776.8776h5.266c.4847 0 .8777-.3929.8777-.8776s-.393-.8777-.8777-.8777z"/><path d="m54.9956 46.4907c-.0036-.0356-.0096-.0699-.0171-.1036-.0018-.0078-.004-.0154-.006-.0232-.0068-.0268-.0146-.0531-.0239-.0788-.0029-.0082-.0057-.0163-.0089-.0244-.0117-.0302-.0248-.0595-.0396-.088-.0011-.0018-.0017-.0039-.0027-.0059-.0045-.0085-4.8709-9.1687-4.8709-9.1687v-23.9045c0-.4847-.393-.8776-.8777-.8776s-.8776.3929-.8776.8776v23.2456h-41.54259v-24.6998c0-1.4519 1.18109-2.63298 2.63298-2.63298h34.82251c.4847 0 .8776-.39296.8776-.87766s-.3929-.87766-.8776-.87766h-34.8224c-2.41976 0-4.3883 1.96853-4.3883 4.3883v25.3587l-4.866326 9.1602c-.0055.0105-.006202.0124-.0071378.0144-.0148617.0285-.0279681.058-.0396702.0881-.0031596.008-.0059681.0161-.0087766.0242-.0092447.0258-.0170851.0521-.0238724.0791-.0019893.0077-.0042127.0152-.005851.023-.0074894.0337-.01357451.068-.01708515.103-.00315957.0295-.00468085.0587-.00468085.0885v1.7553c0 2.4197 1.96853 4.3883 4.3883 4.3883h46.2234c2.4198 0 4.3883-1.9686 4.3883-4.3883v-1.7553c0-.0298-.0015-.059-.0044-.0879zm-48.617-8.3962h42.2427l4.0408 7.6064h-50.32437zm44.2331 12.8724h-46.2234c-1.45189 0-2.63298-1.1811-2.63298-2.633v-.8777h51.48938v.8777c0 1.4519-1.1811 2.633-2.633 2.633z"/><path d="m49.4413 4.03315h2.5621l-20.9472 20.94705-6.4843-6.4843c-.3427-.3427-.8984-.3427-1.2411 0l-14.58985 14.5898c-.34275.3427-.34275.8985 0 1.2411.17132.1713.396.2571.62057.2571.22456 0 .44924-.0857.62056-.2571l13.96922-13.9692 6.4842 6.4843c.3428.3427.8985.3427 1.2412 0l21.5678-21.56762v2.56206c0 .48471.393.87766.8777.87766s.8776-.39295.8776-.87766v-4.68085c0-.4847-.3929-.87766-.8776-.87766h-4.6809c-.4847 0-.8776.39296-.8776.87766s.3928.87766.8776.87766z"/></g></svg>