<svg fill="none" height="58" viewBox="0 0 172 58" width="172" xmlns="http://www.w3.org/2000/svg"><path d="m5.0752 12.1709-2.09473 2.5342v7.2949h-2.680665v-21.328125h2.680665v10.297825l1.75781-2.32908 5.74222-7.968745h3.2226l-6.92869 9.389625 7.47069 11.9385h-3.208zm21.7969-.0293h-7.544v7.5586h8.7891v2.2998h-11.4697v-21.328125h11.3232v2.314455h-8.6426v6.85547h7.544zm14.9121 0h-7.544v7.5586h8.7891v2.2998h-11.4697v-21.328125h11.3232v2.314455h-8.6426v6.85547h7.544zm7.3681 1.5088v8.3496h-2.6806v-21.328125h6.7969c1.9824 0 3.54.595705 4.6728 1.787105 1.1328 1.18165 1.6992 2.75879 1.6992 4.73145 0 2.05078-.542 3.63277-1.626 4.74607-1.0742 1.1035-2.5927 1.6748-4.5556 1.7139zm0-2.2998h4.1163c1.1914 0 2.1044-.3565 2.7392-1.0694.6348-.71284.9522-1.73335.9522-3.06147 0-1.2793-.3272-2.30469-.9815-3.07618-.6543-.77148-1.5527-1.15722-2.6953-1.15722h-4.1309zm-48.852495 45.6494v-21.3281h6.079105c1.94336 0 3.40332.4736 4.37989 1.4209.9863.9472 1.4795 2.3681 1.4795 4.2627 0 .9961-.249 1.875-.7471 2.6367-.498.7617-1.1719 1.3525-2.02147 1.7724.97657.293 1.74807.8936 2.31447 1.8018.5762.9082.8642 2.002.8642 3.2813 0 1.914-.5273 3.4179-1.582 4.5117-1.0449 1.0937-2.53906 1.6406-4.48242 1.6406zm2.680665-9.9756v7.6758h3.66211c1.01562 0 1.82129-.332 2.41699-.9961.5957-.6738.89355-1.6162.89355-2.8271 0-2.5684-1.08398-3.8526-3.25195-3.8526zm0-2.2558h3.44238c.92774 0 1.67481-.3125 2.24121-.9375.57617-.625.86426-1.4551.86426-2.4903 0-1.1719-.25879-2.0215-.77637-2.5488-.51757-.5371-1.30859-.8057-2.37304-.8057h-3.39844zm27.56833 3.4423c0 2.9102-.6201 5.1514-1.8603 6.7237-1.2403 1.5722-3.003 2.3584-5.2881 2.3584-2.1973 0-3.9356-.7618-5.2149-2.2852-1.2695-1.5332-1.9287-3.6963-1.9775-6.4892v-4.0137c0-2.8516.6299-5.083 1.8897-6.6944 1.2597-1.621 3.0175-2.4316 5.2734-2.4316 2.2461 0 3.9941.7764 5.2441 2.3291 1.2598 1.543 1.9043 3.75 1.9336 6.6211zm-2.6806-3.7353c0-2.2559-.3711-3.9307-1.1133-5.0244-.7324-1.1035-1.8604-1.6553-3.3838-1.6553-1.4746 0-2.5928.5566-3.3545 1.6699-.752 1.1133-1.1328 2.7539-1.1426 4.9219v3.8232c0 2.1778.376 3.8379 1.128 4.9805.7617 1.1426 1.8945 1.7139 3.3984 1.7139s2.6172-.5274 3.3398-1.5821c.7227-1.0546 1.0987-2.6709 1.128-4.8486zm12.4951-.6299 4.0137-8.1738h3.1494l-5.5518 10.5761 5.669 10.752h-3.1788l-4.1015-8.3203-4.1162 8.3203h-3.1787l5.6982-10.752-5.5811-10.5761h3.1348z" fill="#3c3c3c"/><path d="m73 12.5811h-7.207v9.4189h-2.6807v-21.328125h11.1035v2.314455h-8.4228v7.29487h7.207zm18.3984.6298c0 2.9102-.6201 5.1514-1.8603 6.7237-1.2402 1.5722-3.0029 2.3584-5.2881 2.3584-2.1973 0-3.9355-.7618-5.2148-2.2852-1.2696-1.5332-1.9288-3.6963-1.9776-6.4892v-4.01372c0-2.85156.6299-5.083 1.8897-6.69433 1.2597-1.6211 3.0175-2.431644 5.2734-2.431644 2.2461 0 3.9941.776364 5.2441 2.329104 1.2598 1.54297 1.9043 3.75 1.9336 6.62109zm-2.6806-3.73531c0-2.25586-.3711-3.93067-1.1133-5.02442-.7324-1.10351-1.8604-1.65527-3.3838-1.65527-1.4746 0-2.5928.55664-3.3545 1.66992-.7519 1.11328-1.1328 2.75391-1.1426 4.92188v3.8232c0 2.1778.376 3.8379 1.128 4.9805.7617 1.1426 1.8945 1.7139 3.3984 1.7139s2.6172-.5274 3.3398-1.5821c.7227-1.0546 1.0987-2.6709 1.128-4.8486zm13.2712 3.89651h-3.7497v8.6279h-2.6954v-21.328125h5.9771c2.089 0 3.671.546875 4.746 1.640625 1.074 1.08398 1.611 2.67578 1.611 4.77539 0 1.31836-.293 2.4707-.879 3.45701-.576.9766-1.396 1.7139-2.461 2.2119l4.131 9.0674v.1758h-2.886zm-3.7497-2.2998h3.2517c1.123 0 2.017-.3614 2.681-1.08402.674-.72266 1.011-1.68945 1.011-2.90039 0-2.73437-1.241-4.10156-3.721-4.10156h-3.2227zm23.4667 1.0693h-7.544v7.5586h8.789v2.2998h-11.47v-21.328125h11.324v2.314455h-8.643v6.85547h7.544zm10.781 5.7422 4.878-17.211925h2.945l-6.636 21.328125h-2.344l-6.621-21.328125h2.93zm20.948-5.7422h-7.544v7.5586h8.789v2.2998h-11.47v-21.328125h11.323v2.314455h-8.642v6.85547h7.544zm11.132 1.2305h-3.75v8.6279h-2.695v-21.328125h5.977c2.089 0 3.672.546875 4.746 1.640625 1.074 1.08398 1.611 2.67578 1.611 4.77539 0 1.31836-.293 2.4707-.879 3.45701-.576.9766-1.396 1.7139-2.461 2.2119l4.131 9.0674v.1758h-2.886zm-3.75-2.2998h3.252c1.123 0 2.017-.3614 2.681-1.08402.674-.72266 1.011-1.68945 1.011-2.90039 0-2.73437-1.24-4.10156-3.721-4.10156h-3.223z" fill="#830909"/></svg>