<svg fill="none" height="44" viewBox="0 0 70 44" width="70" xmlns="http://www.w3.org/2000/svg"><path d="m12.8097 43.9999c-1.2496 0-2.1445-.2699-2.6848-.8095-.54033-.5734-.8105-1.6359-.8105-3.1875 0-1.0456.10131-2.3779.30394-3.9969.23639-1.6527.60786-3.9126 1.11446-6.7796.878-5.2955 1.5703-9.8826 2.0769-13.7615.3039-2.4285.4559-4.4523.4559-6.07127 0-1.51782-.5573-2.27673-1.6717-2.27673-.878 0-1.94179.45535-3.1913 1.36604-1.21575.87696-2.56657 2.29356-4.05248 4.24986-.47278.6409-.99623.9613-1.57033.9613-.47279 0-.89492-.2192-1.2664-.6577-.3377-.4722-.50655-.995-.50655-1.5684 0-.5397.10131-1.0794.30393-1.61902.2364-.5734.60787-1.21426 1.11443-1.92257 1.62099-2.25986 3.42772-3.99692 5.42018-5.21118 1.99247-1.24798 3.98492-1.871968 5.97742-1.871968 1.8574 0 3.2757.590258 4.2551 1.770788 1.0131 1.18052 1.5196 2.90072 1.5196 5.16058 0 .91069-.0844 1.99002-.2532 3.23797-.1689 1.2143-.3209 2.2093-.4559 2.9851-.1351.7758-.2364 1.3154-.304 1.619 1.925-5.4979 4.0863-9.32616 6.484-11.48484 2.3977-2.1924 5.0318-3.288598 7.9023-3.288598 2.1951 0 3.9174.775768 5.1669 2.327318 1.2833 1.55155 1.9249 3.74395 1.9249 6.57721 0 1.11311-.1519 2.49601-.4559 4.14871 1.6886-4.65465 3.6641-7.99385 5.9268-10.0176 2.2626-2.02376 4.8629-3.035638 7.801-3.035638 2.3639 0 4.1706.758908 5.4201 2.276728 1.2833 1.51782 1.925 3.64276 1.925 6.37483 0 1.48408-.2195 3.28858-.6586 5.41358l-3.09 14.4698c-.3377 1.6865-.5065 3.1368-.5065 4.3511 0 1.4166.3208 2.4791.9624 3.1874.6755.7083 1.6041 1.0625 2.7861 1.0625 1.1144 0 2.1951-.371 3.242-1.1131 1.0806-.742 2.347-1.9731 3.7992-3.6933.4052-.4722.8611-.7083 1.3677-.7083.439 0 .7767.2023 1.0131.6071.2702.4047.4053.9613.4053 1.6696 0 1.3154-.3209 2.361-.9625 3.1368-1.7561 2.1249-3.4953 3.6765-5.2176 4.6546-1.7223.9782-3.529 1.4673-5.4201 1.4673-2.8705 0-5.1163-.8433-6.7373-2.5297-1.621-1.7202-2.4315-4.0138-2.4315-6.8808 0-1.99.4053-4.8739 1.2158-8.6516l2.0262-9.2586c.0676-.3036.1858-.8433.3546-1.6191.1689-.7757.3039-1.5009.4053-2.1755.1013-.7083.1519-1.3998.1519-2.0743 0-1.18057-.2364-2.05752-.7092-2.63092-.439-.60713-1.0806-.91069-1.9249-.91069-1.5872 0-3.2588 1.02874-5.0149 3.08621-1.7223 2.0238-3.3771 5.3967-4.9643 10.1188-1.5534 4.7221-2.8198 10.8608-3.7992 18.4162-.2364 2.0237-.6585 3.3898-1.2664 4.0981-.5741.6746-1.5197 1.0119-2.8367 1.0119-1.1482 0-1.9925-.2699-2.5328-.8095-.5066-.5397-.7598-1.5516-.7598-3.0357 0-1.3829.1857-3.1874.5572-5.4135.3714-2.2599.8442-4.9076 1.4183-7.9433 1.5535-8.1624 2.3302-13.4242 2.3302-15.7853 0-1.28168-.2533-2.22609-.7598-2.83322-.4728-.60713-1.1989-.91069-2.1782-.91069-1.6548 0-3.3602.94442-5.1163 2.83321-1.7561 1.8552-3.4784 5.1775-5.1669 9.967-1.6547 4.7559-3.0393 11.1982-4.1538 19.3269-.2364 1.7202-.5909 2.9176-1.0637 3.5922-.4391.6746-1.3171 1.0119-2.6341 1.0119z" fill="#5454ab"/><path d="m11.8028 43.1566c-1.2495 0-2.14441-.2698-2.68474-.8095-.54033-.5734-.81049-1.6359-.81049-3.1874 0-1.0456.10131-2.3779.30393-3.9969.2364-1.6528.60787-3.9126 1.11443-6.7796.87807-5.2955 1.57037-9.8827 2.07687-13.7616.304-2.4285.4559-4.4522.4559-6.07123 0-1.51782-.5572-2.27673-1.6716-2.27673-.87805 0-1.94183.45535-3.19134 1.36604-1.21574.87696-2.56657 2.29359-4.05247 4.24992-.47279.6408-.99623.9613-1.57033.9613-.47279 0-.894925-.2193-1.266401-.6578-.337706-.4722-.506559-.995-.506559-1.5684 0-.5396.101312-1.07932.303935-1.61898.236394-.5734.607871-1.21426 1.114425-1.92257 1.62099-2.25986 3.42772-3.99692 5.42018-5.21118 1.99247-1.24798 3.98496-1.87197 5.97736-1.87197 1.8574 0 3.2758.590261 4.2551 1.77079 1.0132 1.18052 1.5197 2.90071 1.5197 5.16058 0 .91069-.0844 1.99002-.2533 3.23803-.1688 1.2142-.3208 2.2092-.4559 2.985s-.2364 1.3155-.3039 1.619c1.9249-5.49785 4.0862-9.32612 6.4839-11.4848 2.3978-2.1924 5.0319-3.2886 7.9024-3.2886 2.1951 0 3.9174.775772 5.1669 2.32732 1.2832 1.55155 1.9249 3.74395 1.9249 6.57721 0 1.11307-.152 2.49597-.4559 4.14867 1.6885-4.65461 3.6641-7.99381 5.9267-10.01757 2.2627-2.02375 4.863-3.03563 7.801-3.03563 2.364 0 4.1707.758908 5.4202 2.27673 1.2833 1.51781 1.9249 3.64276 1.9249 6.37483 0 1.48404-.2195 3.28864-.6585 5.41354l-3.09 14.4699c-.3377 1.6864-.5066 3.1368-.5066 4.351 0 1.4167.3209 2.4791.9625 3.1875.6754.7083 1.6041 1.0624 2.7861 1.0624 1.1144 0 2.1951-.371 3.242-1.113 1.0806-.7421 2.347-1.9732 3.7991-3.6934.4053-.4722.8612-.7083 1.3678-.7083.439 0 .7767.2024 1.0131.6071.2701.4048.4052.9613.4052 1.6696 0 1.3155-.3208 2.3611-.9624 3.1368-1.7561 2.125-3.4953 3.6765-5.2176 4.6547-1.7223.9781-3.529 1.4672-5.4202 1.4672-2.8705 0-5.1162-.8432-6.7372-2.5297-1.621-1.7202-2.4315-4.0138-2.4315-6.8808 0-1.99.4052-4.8738 1.2157-8.6515l2.0263-9.2587c.0675-.3036.1857-.8432.3546-1.619.1688-.7758.3039-1.501.4052-2.1755.1013-.7084.152-1.3998.152-2.0744 0-1.18053-.2364-2.05749-.7092-2.63088-.439-.60713-1.0807-.91069-1.9249-.91069-1.5872 0-3.2589 1.02874-5.015 3.08622-1.7223 2.02375-3.377 5.39665-4.9642 10.11875-1.5535 4.7221-2.8199 10.8609-3.7992 18.4162-.2364 2.0238-.6585 3.3898-1.2664 4.0981-.5741.6746-1.5197 1.0119-2.8367 1.0119-1.1482 0-1.9925-.2698-2.5328-.8095-.5066-.5397-.7599-1.5515-.7599-3.0356 0-1.3829.1858-3.1875.5572-5.4136.3715-2.2598.8443-4.9076 1.4184-7.9432 1.5534-8.1625 2.3302-13.4243 2.3302-15.7853 0-1.28174-.2533-2.22616-.7599-2.83328-.4728-.60713-1.1988-.91069-2.1782-.91069-1.6547 0-3.3601.94442-5.1162 2.83325-1.7561 1.85512-3.4784 5.17742-5.1669 9.96702-1.6548 4.7558-3.0394 11.1981-4.1538 19.3269-.2364 1.7202-.591 2.9175-1.0638 3.5921-.439.6746-1.317 1.0119-2.6341 1.0119z" fill="#f46662"/></svg>