<svg fill="none" height="122" viewBox="0 0 368 122" width="368" xmlns="http://www.w3.org/2000/svg"><path clip-rule="evenodd" d="m204.496 1.56268v56.45162h11.518v-29.7455c1.259-.8719 2.421-1.5072 3.488-1.9058 1.088-.3986 2.154-.5979 3.2-.5979 1.471 0 2.613.2118 3.423.6353.832.4235 1.461 1.0961 1.888 2.0179.363.7972.618 2.0428.768 3.7368.149 1.6692.224 3.3508.224 5.0448v20.8144h11.582v-27.3165c0-5.2566-1.098-9.2052-3.295-11.8459-2.176-2.6407-5.205-3.9611-9.087-3.9611-2.304 0-4.405.4983-6.303 1.4948-1.877.9965-3.84 2.4289-5.888 4.2974v-20.672926zm-60.925 16.16812v-16.17819l11.518-1.55261v58.0143h-11.518v-4.3722c-1.984 1.8934-3.84 3.2885-5.568 4.1853-1.727.8969-3.722 1.3453-5.983 1.3453-4.373 0-7.871-1.9681-10.495-5.9042-2.623-3.9362-3.935-9.2426-3.935-15.9191 0-3.5625.437-6.7139 1.312-9.4543.896-2.7653 2.112-5.1319 3.647-7.1 1.451-1.8685 3.211-3.3134 5.28-4.3348 2.069-1.0463 4.138-1.5695 6.207-1.5695 2.154 0 3.914.2741 5.279.8221 1.387.5232 2.805 1.1958 4.256 2.0179zm0 28.6992v-20.5902c-.811-.3986-1.664-.685-2.56-.8594s-1.717-.2616-2.464-.2616c-3.029 0-5.3 1.1086-6.815 3.3258-1.514 2.1923-2.272 5.2441-2.272 9.1553 0 4.1106.608 7.1001 1.824 8.9685 1.216 1.8435 3.168 2.7653 5.855 2.7653 1.046 0 2.155-.2242 3.328-.6726 1.173-.4734 2.208-1.0837 3.104-1.8311zm-30.175 11.5843h-27.9004v-9.8654h7.807v-35.9113h-7.807v-9.86528h27.9004v9.86528h-7.807v35.9113h7.807zm71.708-19.6933v8.7443c-.896.8968-1.941 1.6193-3.136 2.1673-1.173.5481-2.335.8221-3.487.8221-1.451 0-2.517-.1121-3.2-.3363-.682-.2491-1.269-.6228-1.76-1.121-.512-.4983-.832-1.0214-.96-1.5695s-.192-1.2581-.192-2.13c0-1.3204.299-2.3792.896-3.1764.619-.8221 1.504-1.4449 2.656-1.8684.939-.3488 2.314-.6477 4.128-.8969 1.813-.274 3.498-.4857 5.055-.6352zm-2.304 17.2269c.917-.7722 1.685-1.4324 2.304-1.9805v4.4469h11.422v-28.5497c0-5.0323-1.461-8.7194-4.383-11.0611-2.901-2.3667-7.626-3.55-14.174-3.55-2.752 0-5.504.2615-8.255.7847-2.73.4982-4.704.9342-5.919 1.3079v10.1269h1.055c.939-.4235 2.485-1.0214 4.64-1.7937 2.154-.7972 4.181-1.1958 6.079-1.1958 3.157 0 5.546.4484 7.167 1.3453 1.621.8719 2.432 2.4663 2.432 4.7832v.2242c-3.392.2242-6.666.573-9.823 1.0463s-5.802 1.2705-7.935 2.3916c-2.154 1.1211-3.818 2.6532-4.991 4.5964-1.173 1.9431-1.76 4.4468-1.76 7.5111 0 3.8365 1.152 6.9879 3.456 9.4542 2.303 2.4664 5.162 3.6995 8.574 3.6995 1.451 0 2.784-.1494 4-.4484 1.216-.274 2.389-.71 3.519-1.3079.811-.4484 1.675-1.0588 2.592-1.8311zm97.337-2.1673c3.455-3.986 5.183-9.4294 5.183-16.3302 0-6.9007-1.717-12.3441-5.151-16.3301-3.413-3.986-8.255-5.979-14.526-5.979-6.186 0-11.018 1.9806-14.495 5.9417-3.455 3.961-5.183 9.4169-5.183 16.3674 0 6.9008 1.717 12.3442 5.151 16.3302 3.456 3.961 8.298 5.9416 14.527 5.9416 6.228 0 11.06-1.9806 14.494-5.9416zm-7.327-9.9775c-.363 1.4948-.918 2.7778-1.664 3.849-.661.9716-1.472 1.6691-2.432 2.0926-.938.3986-1.93.5979-2.975.5979-1.216 0-2.304-.2242-3.264-.6726-.939-.4484-1.749-1.1584-2.432-2.13-.704-1.0214-1.237-2.3667-1.599-4.0358-.363-1.6941-.544-3.6871-.544-5.979 0-2.566.202-4.696.608-6.3901.426-1.694.991-3.0268 1.695-3.9984.79-1.0463 1.611-1.7439 2.464-2.0927.875-.3487 1.866-.5231 2.976-.5231 1.109 0 2.143.2117 3.103.6353.96.4235 1.781 1.1459 2.464 2.1673.682.9965 1.216 2.3293 1.6 3.9985.384 1.6691.576 3.7369.576 6.2032 0 2.6656-.192 4.7583-.576 6.2779zm-232.0792 59.8189c0 5.48-1.9945 9.94-5.9833 13.378-3.9675 3.413-9.3641 5.119-16.1899 5.119-3.9461 0-7.391-.398-10.33466-1.196-2.92229-.822-5.66327-1.856-8.22294-3.101v-13.341h1.34383c2.53834 2.367 5.3753 4.185 8.5109 5.456 3.15697 1.27 6.18587 1.906 9.08687 1.906.7465 0 1.7277-.075 2.9436-.224 1.2158-.15 2.2077-.399 2.9756-.748.9385-.448 1.7064-1.009 2.3037-1.681.6186-.673.9279-1.67.9279-2.99 0-1.221-.448-2.267-1.3438-3.139-.8746-.897-2.1651-1.582-3.8715-2.055-1.7918-.498-3.6902-.9593-5.6953-1.3828-1.9838-.4484-3.8502-1.009-5.5993-1.6816-4.01014-1.5197-6.90044-3.5749-8.67088-6.1658-1.7491-2.6158-2.623657-5.8545-2.623657-9.7159 0-5.1818 1.983747-9.4044 5.951237-12.668 3.9888-3.2884 9.1082-4.9326 15.358-4.9326 3.1356 0 6.2286.3612 9.2788 1.0837 3.0716.6975 5.7273 1.5819 7.967 2.6531v12.8175h-1.3118c-1.9198-1.7937-4.2768-3.2884-7.0711-4.4843-2.773-1.2207-5.61-1.831-8.5109-1.831-1.0239 0-2.0478.0872-3.0716.2616-1.0026.1494-1.9731.4484-2.9117.8968-.8318.3737-1.5464.9467-2.1437 1.719-.5972.7474-.8959 1.6068-.8959 2.5784 0 1.4698.48 2.6034 1.4399 3.4006.9598.7722 2.7729 1.4823 5.4393 2.13 1.7491.4235 3.4235.8345 5.0233 1.2331 1.6211.3986 3.3596.9467 5.2153 1.6443 3.6476 1.3951 6.3352 3.3009 8.063 5.7174 1.7491 2.3916 2.6237 5.5056 2.6237 9.3425zm24.8787 17.974c1.3865-.199 2.6983-.486 3.9355-.86v-9.23h-.9599c-.384.25-1.0665.524-2.0477.823-.9599.298-1.7385.448-2.3357.448-1.4505 0-2.5597-.249-3.3276-.747-.7466-.524-1.2692-1.221-1.5678-2.093-.32-.872-.4906-1.856-.5119-2.952-.0214-1.096-.032-2.379-.032-3.849v-14.8729h10.7826v-9.1179h-10.7826v-10.7098l-11.5186 1.5526v9.1572h-4.7354v9.1179h4.7354v19.6189c0 5.132 1.0879 8.756 3.2636 10.874 2.1971 2.118 5.5353 3.176 10.0147 3.176 2.0051 0 3.7009-.112 5.0874-.336zm30.638-11.435v-8.744c-1.5572.149-3.2423.361-5.0554.635-1.8131.249-3.1889.548-4.1275.897-1.1518.424-2.037 1.046-2.6556 1.868-.5973.798-.8959 1.856-.8959 3.177 0 .872.064 1.582.192 2.13.1279.548.4479 1.071.9598 1.569.4906.499 1.0772.872 1.7598 1.121.6826.225 1.7491.337 3.1996.337 1.1519 0 2.3144-.274 3.4875-.822 1.1946-.549 2.2398-1.271 3.1357-2.168zm0 6.502c-.6186.548-1.3865 1.209-2.3037 1.981-.9173.772-1.7812 1.382-2.5917 1.831-1.1305.598-2.3037 1.034-3.5196 1.308-1.2158.299-2.549.448-3.9994.448-3.4129 0-6.2712-1.233-8.575-3.699-2.3037-2.467-3.4555-5.618-3.4555-9.455 0-3.064.5866-5.567 1.7598-7.511 1.1731-1.9428 2.8369-3.4749 4.9913-4.596 2.1331-1.121 4.7781-1.9182 7.935-2.3916 3.1569-.4733 6.4312-.8221 9.8227-1.0463v-.2242c0-2.3169-.8105-3.9113-2.4316-4.7832-1.6212-.8968-4.0102-1.3453-7.1671-1.3453-1.8984 0-3.9249.3986-6.0792 1.1958-2.1544.7723-3.7009 1.3702-4.6394 1.7937h-1.0559v-10.1269c1.2158-.3737 3.1889-.8096 5.9192-1.3079 2.7517-.5232 5.5033-.7847 8.255-.7847 6.5485 0 11.2736 1.1833 14.1746 3.55 2.922 2.3418 4.383 6.0288 4.383 11.0611v28.5495h-11.4225zm39.0845 4.933c1.387-.199 2.699-.486 3.936-.86v-9.23h-.96c-.384.25-1.067.524-2.048.823-.96.298-1.738.448-2.335.448-1.451 0-2.56-.249-3.328-.747-.747-.524-1.269-1.221-1.568-2.093-.32-.872-.49-1.856-.512-2.952-.021-1.096-.032-2.379-.032-3.849v-14.8729h10.783v-9.1179h-10.783v-10.6725l-11.518 1.5526v9.1199h-4.736v9.1179h4.736v19.6189c0 5.132 1.088 8.756 3.263 10.874 2.197 2.118 5.536 3.176 10.015 3.176 2.005 0 3.701-.112 5.087-.336zm44.269-18.983h-26.365c.171 3.288 1.237 5.804 3.2 7.548 1.983 1.744 4.895 2.616 8.734 2.616 2.432 0 4.789-.511 7.072-1.532 2.282-1.022 4.084-2.118 5.407-3.289h1.28v10.8c-2.603 1.221-5.056 2.105-7.359 2.653-2.304.548-4.853.822-7.647.822-7.21 0-12.735-1.893-16.574-5.68-3.84-3.786-5.76-9.18-5.76-16.1804 0-6.9257 1.814-12.4064 5.44-16.4422 3.647-4.0608 8.639-6.0911 14.974-6.0911 5.844 0 10.239 1.7314 13.182 5.1942 2.944 3.4379 4.416 8.3955 4.416 14.8727zm-11.455-7.8851c-.064-2.8151-.661-4.9327-1.792-6.3527-1.13-1.42-2.89-2.13-5.279-2.13-2.218 0-4.042.6726-5.471 2.0179-1.43 1.3453-2.229 3.5002-2.4 6.4648zm43.852 23.5801c3.328-2.666 4.992-6.166 4.992-10.501 0-2.965-.726-5.431-2.176-7.399-1.451-1.9931-3.69-3.4504-6.719-4.3722-1.365-.3986-2.73-.7225-4.096-.9716-1.343-.274-2.602-.5481-3.775-.8221-2.133-.5232-3.488-1.0463-4.064-1.5695-.576-.5231-.864-1.283-.864-2.2795 0-1.0961.63-1.9431 1.888-2.541 1.28-.5979 2.848-.8969 4.704-.8969 2.239 0 4.447.436 6.623 1.3079 2.197.847 4.149 1.9556 5.855 3.3258h.992v-10.6127c-1.387-.7224-3.317-1.3951-5.791-2.0179-2.453-.6477-5.024-.9716-7.711-.9716-5.674 0-10.154 1.3453-13.439 4.0359-3.263 2.6656-4.895 6.0163-4.895 10.0521 0 3.139.789 5.7673 2.368 7.8848 1.578 2.0925 3.999 3.6375 7.263 4.6335 1.194.374 2.517.698 3.967.972 1.472.249 2.635.486 3.488.71 1.792.423 3.007.872 3.647 1.345.64.449.96 1.183.96 2.205 0 1.146-.544 2.018-1.632 2.616-1.087.573-2.762.859-5.023.859-1.728 0-3.349-.199-4.863-.598-1.515-.423-2.869-.922-4.064-1.495-1.386-.647-2.463-1.245-3.231-1.793-.747-.573-1.408-1.096-1.984-1.57h-1.056v11.061c1.578.847 3.669 1.62 6.271 2.317 2.603.698 5.503 1.047 8.703 1.047 5.781 0 10.335-1.321 13.662-3.961zm45.836-26.9433v29.7453h-11.582v-20.9636c0-2.0429-.043-3.7743-.128-5.1943-.085-1.4449-.32-2.6158-.704-3.5126-.384-.8969-.971-1.5446-1.76-1.9432-.768-.4235-1.856-.6353-3.263-.6353-1.131 0-2.229.2741-3.296.8221-1.066.5232-2.026 1.0837-2.88 1.6816v29.7453h-11.518v-41.9648h11.518v4.6337c1.984-1.8186 3.883-3.2386 5.696-4.2601 1.813-1.0214 3.818-1.5321 6.015-1.5321 2.368 0 4.458.6228 6.271 1.8685 1.813 1.2207 3.232 3.0268 4.256 5.4184 2.303-2.267 4.543-4.0483 6.719-5.3437 2.175-1.2954 4.308-1.9432 6.399-1.9432 3.882 0 6.826 1.3578 8.831 4.0732 2.026 2.7155 3.039 6.6267 3.039 11.7338v27.3163h-11.582v-20.9636c0-2.0678-.043-3.8116-.128-5.2317-.064-1.42-.288-2.5784-.672-3.4752-.363-.8969-.939-1.5446-1.728-1.9432-.789-.4235-1.898-.6353-3.327-.6353-.96 0-1.899.1993-2.816.5979-.917.3737-2.037 1.009-3.36 1.9058zm54.027 10.0523v8.744c-.896.897-1.941 1.619-3.135 2.168-1.173.548-2.336.822-3.488.822-1.45 0-2.517-.112-3.199-.337-.683-.249-1.27-.622-1.76-1.121-.512-.498-.832-1.021-.96-1.569s-.192-1.258-.192-2.13c0-1.321.299-2.379.896-3.177.618-.822 1.504-1.444 2.655-1.868.939-.349 2.315-.648 4.128-.897 1.813-.274 3.498-.486 5.055-.635zm-2.303 17.227c.917-.772 1.685-1.433 2.303-1.981v4.447h11.423v-28.5495c0-5.0323-1.461-8.7193-4.384-11.0611-2.901-2.3667-7.625-3.55-14.174-3.55-2.751 0-5.503.2615-8.255.7847-2.73.4983-4.703.9342-5.919 1.3079v10.1269h1.056c.938-.4235 2.485-1.0214 4.639-1.7937 2.155-.7972 4.181-1.1958 6.08-1.1958 3.156 0 5.545.4485 7.167 1.3453 1.621.8719 2.431 2.4663 2.431 4.7832v.2242c-3.391.2242-6.665.573-9.822 1.0463-3.157.4734-5.802 1.2706-7.935 2.3916-2.155 1.1211-3.819 2.6532-4.992 4.596-1.173 1.944-1.76 4.447-1.76 7.511 0 3.837 1.152 6.988 3.456 9.455 2.304 2.466 5.162 3.699 8.575 3.699 1.45 0 2.784-.149 3.999-.448 1.216-.274 2.389-.71 3.52-1.308.811-.449 1.674-1.059 2.592-1.831zm58.442 2.466h-11.583v-20.8142c0-1.694-.074-3.3756-.223-5.0447-.15-1.6941-.406-2.9397-.768-3.7369-.427-.9218-1.056-1.5944-1.888-2.0179-.811-.4235-1.952-.6353-3.424-.6353-1.045 0-2.111.1993-3.199.5979-1.067.3986-2.229 1.0339-3.488 1.9058v29.7453h-11.518v-41.9648h11.518v4.6337c2.048-1.8685 4.01-3.3009 5.887-4.2974 1.899-.9965 4-1.4948 6.304-1.4948 3.882 0 6.911 1.3204 9.086 3.9611 2.197 2.6407 3.296 6.5894 3.296 11.8459z" fill="#210a00" fill-opacity=".81" fill-rule="evenodd"/></svg>